<svg width="713" height="706" xmlns="http://www.w3.org/2000/svg" xmlns:xlink="http://www.w3.org/1999/xlink" xml:space="preserve" overflow="hidden"><g transform="translate(-687 -697)"><path d="M0 0 61.4145 244.488" stroke="#D9D9D9" stroke-width="57.2917" stroke-linecap="round" stroke-miterlimit="8" fill="none" fill-rule="evenodd" transform="matrix(-1 0 0 1 1242.91 924.5)"/><path d="M1176.3 864.123C1148.91 805.639 1174.13 736.028 1232.61 708.645 1291.1 681.261 1360.71 706.474 1388.09 764.958 1415.47 823.443 1390.26 893.053 1331.78 920.437 1273.29 947.821 1203.68 922.608 1176.3 864.123Z" fill="#457093" fill-rule="evenodd"/><path d="M0 0 255.689 76.3396" stroke="#D9D9D9" stroke-width="57.2917" stroke-linecap="round" stroke-miterlimit="8" fill="none" fill-rule="evenodd" transform="matrix(1 0 0 -1 921.5 940.84)"/><path d="M1057.1 1278.53C1061.05 1214.07 1116.5 1165.02 1180.96 1168.97 1245.42 1172.92 1294.47 1228.37 1290.52 1292.83 1286.58 1357.28 1231.12 1406.34 1166.66 1402.39 1102.21 1398.44 1053.15 1342.99 1057.1 1278.53Z" fill="#457093" fill-rule="evenodd"/><path d="M687.9 963.621C681.505 899.36 728.414 842.082 792.675 835.688 856.936 829.293 914.214 876.202 920.609 940.463 927.003 1004.72 880.094 1062 815.833 1068.4 751.572 1074.79 694.294 1027.88 687.9 963.621Z" fill="#457093" fill-rule="evenodd"/><path d="M895.5 1026.5 1097.12 1198.47" stroke="#D9D9D9" stroke-width="57.2917" stroke-linecap="round" stroke-miterlimit="8" fill="none" fill-rule="evenodd"/></g></svg>